<svg id="Layer_1" data-name="Layer 1" xmlns="http://www.w3.org/2000/svg" viewBox="0 0 478 439"><defs><style>.cls-1{fill:#ec1d25;}.cls-2{fill:transparent;}.cls-3{fill:#f6969a;}.cls-4{fill:#f9c6c8;}.cls-5{fill:#fefefe;}.cls-6{fill:#030303;}.cls-7{fill:#040404;}.cls-8{fill:#0a0a0a;}.cls-9{fill:#080808;}.cls-10{fill:#0c0c0c;}.cls-11{fill:#8c8181;}.cls-12{fill:#1f1f1f;}.cls-13{fill:#2a2a2a;}.cls-14{fill:#f7f7f7;}</style></defs><title>pwa-recipes-logo</title><path class="cls-1" d="M259.49816,26.073H262.537c.90469,1.35626,2.298.65681,3.45747.74913a290.042,290.042,0,0,1,28.95592,3.52937,264.65693,264.65693,0,0,1,52.161,15.16247c25.83379,10.46379,48.8828,25.27712,69.68287,43.61728a217.91845,217.91845,0,0,1,27.81116,30.06772c7.13422,9.1952,13.138,19.21346,19.00044,29.26646,3.46739,5.946,5.88565,12.453,8.73157,18.70757,4.782,10.50963,7.44813,21.831,10.47715,32.95056a138.69131,138.69131,0,0,1,4.14614,28.46514c1.35744,23.38513.25516,46.46447-6.26657,69.26454C475.55038,315.83592,468.89923,333,459.27187,349.01374c-2.5096,4.17443-4.93764,8.36464-7.76483,12.38382a232.37536,232.37536,0,0,1-20.15881,25.24877c-5.83354,6.24014-11.91987,12.15789-18.34674,17.79565a243.14595,243.14595,0,0,1-91.88383,49.71082,259.09736,259.09736,0,0,1-104.027,7.89689,252.21657,252.21657,0,0,1-98.3-33.79931,230.89642,230.89642,0,0,1-37.89534-28.48285,217.8531,217.8531,0,0,1-28.58334-31.867,252.06322,252.06322,0,0,1-19.11695-30.988c-3.40293-6.42215-5.78994-13.32653-8.64977-19.99684-4.76384-11.11123-6.7562-23.12851-9.63045-34.82031-2.38289-9.6931-2.83471-19.73863-3.1856-29.72635l-.0343-13.74685c.76956-11.90808,1.78933-23.6966,4.524-35.44875,4.37721-18.81118,10.34056-36.82685,19.62966-53.83313a239.93982,239.93982,0,0,1,19.03-29.65815A220.91434,220.91434,0,0,1,85.102,87.258,242.17264,242.17264,0,0,1,112.0607,66.73435,238.668,238.668,0,0,1,169.797,39.06055a252.68067,252.68067,0,0,1,66.84459-12.32241c5.94164.02237,11.88442.116,17.82421.0214C256.13581,26.73293,257.999,27.539,259.49816,26.073Zm145.15765,315.1117c.999.06156,1.56354-.364,1.57861-1.40592,3.97814-5.01234,6.6129-10.87755,10.24128-16.11194l2.56163-5.21427c2.56442-4.1561,4.29415-8.74728,6.323-13.14054,4.376-9.47562,6.83588-19.74954,8.80265-29.893,4.25738-21.95646,4.574-44.03516-1.5034-65.89291-2.71887-9.77842-4.71856-19.72493-9.56412-28.85-3.39325-6.39007-5.97357-13.13716-9.93437-19.33095a192.25406,192.25406,0,0,0-19.3485-25.82932A185.92693,185.92693,0,0,0,365.869,110.36425a191.49146,191.49146,0,0,0-38.00486-21.4931,195.83787,195.83787,0,0,0-69.42052-15.5741,201.62135,201.62135,0,0,0-70.24611,9.36834c-17.9115,5.68391-34.4339,14.06178-50.14332,24.2024-4.05523,2.61769-4.07712,2.74561-.3931,6.08788,7.33245,6.65227,14.78671,13.17093,22.09246,19.852Q179.215,150.60509,198.552,168.53816c8.212,7.60541,16.1001,15.58206,24.60288,22.84314,4.56934,3.90208,8.20744,8.86607,13.52856,11.89179,5.73071,5.98629,12.02318,11.36438,18.16429,16.91338,10.431,9.42529,20.6896,19.04111,31.02065,28.57683,5.13571,5.1531,10.71531,9.82784,16.0224,14.78793,12.75322,11.91941,25.6727,23.6541,38.51976,35.46938,7.12021,6.54838,14.17157,13.1714,21.41888,19.583,1.91344,1.81809,3.331,4.21554,6.01052,5.13857,5.25374,6.29708,11.94465,11.09777,17.64608,16.92767.17145.75322.59568,1.12129,1.39653.91551q3.62454,3.60705,7.2472,7.21594c2.06312,2.06706,3.86627,2.69663,5.6583-.43686C401.21929,345.86189,403.01941,343.57,404.65581,341.18465Zm-324.44949-22.734a10.50047,10.50047,0,0,0,3.321,5.21949,72.31892,72.31892,0,0,0,10.56218,17.07005l5.041,6.67073c.535,2.13789,2.62847,2.92566,3.87572,4.45376,8.22286,10.07463,17.83952,18.61894,28.18285,26.5016a188.03606,188.03606,0,0,0,48.14633,26.40734,197.9477,197.9477,0,0,0,69.66766,12.63675,201.116,201.116,0,0,0,61.18252-9.24932,198.94358,198.94358,0,0,0,52.09819-25.25749c2.16493-1.46224,2.43034-2.4376.4025-4.46793-7.46072-7.47-16.01961-13.70258-23.35122-21.36609-3.64681-3.81192-7.7837-7.384-11.87171-10.88621-8.488-7.27165-16.46651-15.1373-24.65448-22.75878l-6.02439-5.14694-23.64983-22.21337a4.52479,4.52479,0,0,1-1.35422-.62423c-12.724-12.48992-26.07943-24.295-39.25609-36.29586-8.54779-7.785-16.84384-15.84559-25.33438-23.69439a75.37689,75.37689,0,0,0-6.23164-4.70681c-.19309-2.02037-1.8676-3.08713-3.20232-3.99812-4.70556-3.2117-8.3158-7.60556-12.51712-11.34-9.65451-8.58166-19.07443-17.43927-28.59271-26.182-9.51811-8.7426-18.96168-17.56469-28.56478-26.21765-7.93351-7.14856-15.69823-14.48892-23.38786-21.89963-1.77355-1.70922-2.97816-1.90219-4.41282.026-7.02453,9.44117-13.9673,18.96934-19.40557,29.41905a209.73812,209.73812,0,0,0-9.126,20.59614c-4.97485,12.74387-6.89771,26.28866-8.78519,39.68193-1.60758,11.40708-.892,22.93539.94171,34.54331,2.61254,16.53816,6.55278,32.49052,13.67867,47.6366C78.44154,314.83049,79.33153,316.637,80.20632,318.45064Z" transform="translate(-11 -26)"/><path class="cls-2" d="M11.72925,252.369c.35089,9.98772.80271,20.03325,3.1856,29.72635,2.87425,11.6918,4.86661,23.70908,9.63045,34.82031,2.85983,6.67031,5.24684,13.57469,8.64977,19.99684a252.06322,252.06322,0,0,0,19.11695,30.988,217.8531,217.8531,0,0,0,28.58334,31.867,230.89642,230.89642,0,0,0,37.89534,28.48285,252.21657,252.21657,0,0,0,98.3,33.79931,259.09736,259.09736,0,0,0,104.027-7.89689A243.14595,243.14595,0,0,0,413.00149,404.442c6.42687-5.63776,12.5132-11.55551,18.34674-17.79565A232.37536,232.37536,0,0,0,451.507,361.39756c2.82719-4.01918,5.25523-8.20939,7.76483-12.38382,9.62736-16.01372,16.27851-33.17782,21.42227-51.16055,6.52173-22.80007,7.624-45.87941,6.26657-69.26454a138.69131,138.69131,0,0,0-4.14614-28.46514c-3.029-11.1196-5.69517-22.44093-10.47715-32.95056-2.84592-6.25456-5.26418-12.76157-8.73157-18.70757-5.86242-10.053-11.86622-20.07126-19.00044-29.26646A217.91845,217.91845,0,0,0,416.79425,89.1312C395.99418,70.791,372.94517,55.97771,347.11138,45.51392a264.65693,264.65693,0,0,0-52.161-15.16247,290.042,290.042,0,0,0-28.95592-3.52937c-1.15942-.09232-2.55278.60713-3.45747-.74913q111.67621,0,223.35235-.07258c2.60132-.00315,3.11216.51024,3.11068,3.10968q-.12123,216.39056,0,432.78115c.00143,2.59945-.50969,3.1101-3.11064,3.1088q-235.88745-.12-471.775,0c-2.60091.00135-3.115-.50893-3.11157-3.1088q.13692-104.77843.07272-209.55713A3.8458,3.8458,0,0,0,11.72925,252.369Z" transform="translate(-11 -26)"/><path class="cls-2" d="M236.64155,26.73814A252.68067,252.68067,0,0,0,169.797,39.06055a238.668,238.668,0,0,0-57.73626,27.6738A242.17264,242.17264,0,0,0,85.102,87.258,220.91434,220.91434,0,0,0,54.87852,119.6821a239.93982,239.93982,0,0,0-19.02995,29.65815c-9.2891,17.00628-15.25245,35.022-19.62966,53.83313-2.73463,11.75215-3.7544,23.54067-4.524,35.44875a1.02409,1.02409,0,0,0-.61941.04511q0-104.68789-.07552-209.37571c-.00378-2.75171.58469-3.29487,3.30717-3.29151q111.19983.13695,222.3999.07293A1.27844,1.27844,0,0,1,236.64155,26.73814Z" transform="translate(-11 -26)"/><path class="cls-3" d="M236.64155,26.73814a1.27844,1.27844,0,0,0,.06554-.66519h22.79107c-1.49919,1.46607-3.36235.66-5.0324.68659C248.526,26.85417,242.58319,26.76051,236.64155,26.73814Z" transform="translate(-11 -26)"/><path class="cls-4" d="M11.07554,238.66724a1.02409,1.02409,0,0,1,.61941-.04511l.0343,13.74685a3.8458,3.8458,0,0,1-.65371-.035Z" transform="translate(-11 -26)"/><path class="cls-5" d="M361.827,318.60485c-7.2449-6.41284-14.29626-13.03586-21.41647-19.58424-12.84706-11.81528-25.76654-23.55-38.51976-35.46938-5.30709-4.96009-10.88669-9.63483-16.0218-14.78911.77839-2.38878-1.06151-5.80365.93952-7.09151,1.80216-1.15987,4.91971-.14663,7.43165-.37342,2.53761-.22914,3.46665.42752,3.43617,3.21587-.09592,8.76865.03037,8.70062,8.94964,8.27124,1.88367-.09072,2.32264-.69407,2.29188-2.4397-.09367-5.31117-.12659-10.62746.01249-15.93664.05411-2.06588-.66534-2.53815-2.60579-2.49887-5.81977.1178-11.64627-.06312-17.46423.09324-2.37945.064-3.29344-.47181-3.20142-3.06786.206-5.81152.21033-11.64059.0009-17.45186-.10008-2.77733.60446-3.66428,3.526-3.62316,12.2747.17269,24.55326.07288,36.83039.07285,6.57618,0,6.43948-.001,6.48935-6.57506.01862-2.45541-.78824-2.90625-3.03037-2.86523-7.465.13654-14.93475.1072-22.40134.02343-2.859-.03208-6.76644,1.28846-8.28895-.59369-1.44341-1.78439-.26433-5.555-.58863-8.41247-.34607-3.04913.81639-3.68633,3.70795-3.66316,17.08565.137,34.173.0495,51.25964.092,1.96016.00488,3.29613.03629,3.27209-2.68478-.12861-14.54587-.089-29.09359-.02727-43.64034.00821-1.93064-.50671-2.71343-2.55764-2.61177-2.90195.14387-6.681,1.10568-8.50485-.31235-2.16172-1.6807-.61255-5.66051-.74222-8.62848-.09934-2.27391-.72956-2.97542-3.06438-2.96936q-44.61507.11584-89.23056.006c-2.16026-.00486-2.79382.60264-2.75681,2.75726.04694,2.732,1.28682,6.47321-.54873,7.94236-1.71647,1.37384-5.32285.67059-8.05558.42187-3.25677-.29639-4.245.58876-4.2204,4.07127.14838,20.99328.003,41.98864-.044,62.9833-5.32112-3.02572-8.95922-7.98971-13.52856-11.89179-8.50278-7.26108-16.39091-15.23773-24.60288-22.84314q-19.34882-17.91967-38.79845-35.73045c-7.30575-6.68111-14.76-13.19977-22.09246-19.852-3.684-3.34227-3.66213-3.47019.3931-6.08788,15.70942-10.14062,32.23182-18.51849,50.14332-24.2024a201.62135,201.62135,0,0,1,70.24611-9.36834,195.83787,195.83787,0,0,1,69.42052,15.5741,191.49146,191.49146,0,0,1,38.00486,21.4931,185.92693,185.92693,0,0,1,27.94356,25.15161,192.25406,192.25406,0,0,1,19.3485,25.82932c3.9608,6.19379,6.54112,12.94088,9.93437,19.331,4.84556,9.125,6.84525,19.07153,9.56412,28.85,6.07738,21.85775,5.76078,43.93645,1.5034,65.89291-1.96677,10.14345-4.42666,20.41737-8.80265,29.893-2.02885,4.39326-3.75858,8.98444-6.32295,13.14054-6.82258-.02488-13.64529-.09037-20.4677-.06576C386.322,318.4309,374.07457,318.52919,361.827,318.60485Z" transform="translate(-11 -26)"/><path class="cls-5" d="M273.13473,296.06423q11.82492,11.10669,23.64951,22.21351c-6.95762.03184-13.91627.15119-20.87143.04435-2.22328-.03411-2.046,1.1719-2.00716,2.60771.03714,1.37144-.31656,2.75073,1.96682,2.71151,8.97741-.15423,17.95742-.15747,26.93648-.21677,8.188,7.62148,16.16648,15.48713,24.65448,22.75878,4.088,3.50221,8.2249,7.07429,11.87171,10.88621,7.33161,7.66351,15.8905,13.89612,23.35122,21.36609,2.02784,2.03033,1.76243,3.00569-.4025,4.46793A198.94358,198.94358,0,0,1,310.18567,408.161a201.116,201.116,0,0,1-61.18252,9.24932,197.9477,197.9477,0,0,1-69.66766-12.63675,188.03606,188.03606,0,0,1-48.14633-26.40734c-10.34333-7.88266-19.96-16.427-28.18285-26.5016-1.24725-1.5281-3.34071-2.31587-3.87386-4.45413,5.41863-.00591,10.83981-.14194,16.25015.04134,2.48873.08432,2.73886-1.1693,2.44405-2.97054-.25365-1.54974,1.23329-4.06638-2.21849-3.99339-7.17144.15165-14.34558.17572-21.51861.25223a72.26837,72.26837,0,0,1-10.56089-17.07026q33.19946-.0356,66.39623-.03392c2.00047.00317,2.9346-.33779,2.94839-2.64091.01354-2.26234-.805-2.6686-2.8586-2.66062q-34.90387.13548-69.80836.11617c-.87479-1.81363-1.76478-3.62015-2.62195-5.44206C70.45848,297.8625,66.51824,281.91014,63.9057,265.372c-1.8337-11.60792-2.54929-23.13623-.94171-34.54331,1.88748-13.39327,3.81034-26.93806,8.78519-39.68193a209.73812,209.73812,0,0,1,9.126-20.59614c5.43827-10.44971,12.381-19.97788,19.40557-29.419,1.43466-1.92824,2.63927-1.73527,4.41282-.026,7.68963,7.41071,15.45435,14.75107,23.38786,21.89963,9.6031,8.653,19.04667,17.475,28.56478,26.21765,9.51828,8.74274,18.9382,17.60035,28.59271,26.182,4.20132,3.73447,7.81156,8.12833,12.51712,11.34,1.33472.911,3.00923,1.97775,3.20263,3.99814-1.64472-.02064-3.28973-.05746-4.93477-.05911-6.8117-.00676-6.8117-.00285-6.81216,6.65108-.00034,5.12393-.00034,5.12393-5.15841,5.124-7.45633.00016-7.54774-.00169-7.70021,7.522-.04407,2.17506-.705,2.8313-2.8307,2.75952-4.17323-.141-8.3546-.04083-12.5326-.04076-7.70614.00012-7.77775.00132-7.91824-7.67621-.035-1.91572-.41545-2.74828-2.50227-2.60524-2.52026.17276-5.06636-.05554-7.59187.07359-1.74607.08928-2.47516-.32351-2.4091-2.26452.10237-3.008,1.00071-6.97684-.52212-8.79638-1.81152-2.16449-5.93259-.61021-9.04286-.69082-1.84082-.04769-2.38614-.606-2.32781-2.40047.11914-3.66559.03536-7.33777.03533-11.00723-.00006-7.44229-.00562-7.25751-7.55736-7.4865-3.183-.09652-3.67779,1.02659-3.66074,3.854.11438,18.9793.14467,37.9604-.02414,56.93889-.02821,3.17119,1.02347,3.7149,3.85515,3.658,7.61644-.153,7.82218-.02472,7.53421,7.54124-.13445,3.53215.90366,4.70388,4.38,4.35581,2.627-.263,6.08477-.996,7.76309.3015,1.99516,1.54249.58976,5.16355.68486,7.8736.056,1.59588.39685,2.26281,2.11908,2.17021,2.52479-.13578,5.068.06947,7.59261-.0684,1.89194-.10331,2.72324.35355,2.67661,2.466-.06065,2.74759-1.2244,6.33369.47436,8.049,1.8695,1.88767,5.51916.60949,8.3794.59487,2.0936-.01068,2.76964.52607,2.793,2.7214.07858,7.38947.1791,7.513,7.79646,7.39436,2.658-.04139,3.38254.68426,3.35455,3.34614-.13836,13.158.00271,26.31887-.12416,39.47714-.02255,2.33771.68116,3.11278,2.92177,3.08442,5.82294-.07371,11.64758-.00559,17.47117-.0466.78749-.00554,2.12631.46221,2.20076-.771.17469-2.89372.64574-5.99068-.17339-8.64461-.53588-1.73622-3.48131-.855-5.18876-.61067-4.09089.58546-4.70547-1.19256-4.57453-4.77736.27136-7.429.0856-7.58946,7.54642-7.37812,3.05176.08643,4.3733-.54076,3.99805-3.861-.28018-2.47913-.88807-5.74854.35093-7.35855,1.48722-1.93258,4.92443-.68714,7.4984-.67989,2.15581.00607,2.72317-.67448,2.802-2.81316.11163-3.02981-1.63285-7.279.875-8.78971,2.421-1.45845,6.39743-.2587,9.68382-.39263,1.81894-.07408,1.94256.82475,2.0429,2.286.18631,2.71311-1.32124,6.16074.754,7.96256,2.12983,1.84918,5.62812.75178,8.47323.57128,3.04011-.19288,3.502.95693,3.45768,3.65248-.158,9.61392-.00357,19.23267-.10695,28.84807-.02279,2.12065.54355,2.888,2.74073,2.82285,4.80679-.14255,9.62073-.04382,14.43177-.0438,7.56055.00007,7.489.00353,7.12341-7.4501-.083-1.69255-.55784-2.15946-2.17979-2.09129-2.78039.11689-5.57871-.108-8.35155.078-2.077.13933-2.48751-.64528-2.47736-2.55844q.11084-20.87741-.01509-41.75535c-.01648-2.14721.77763-2.51129,2.61635-2.43867,2.9074.11481,5.82363-.01469,8.73423.04717,1.517.03228,2.24549-.33753,2.31041-2.093.11-2.97475-1.45846-7.038.67352-8.62674,1.97073-1.4686,5.82983-.39878,8.85688-.46486C271.87506,296.21319,272.50449,296.12056,273.13473,296.06423ZM147.13962,357.93529c-.75459,0-1.5095-.01427-2.26371.00278-1.89594.04284-3.894-.6954-3.95736,2.73936-.06716,3.64206,2.06621,2.96662,4.11907,2.983,1.7606.014,3.53442-.13258,5.279.03508,2.43248.23373,2.53633-1.12539,2.59067-2.98831.06065-2.07906-.532-3.07766-2.752-2.79319A23.88,23.88,0,0,1,147.13962,357.93529Zm159.32414.42574c2.598.08374,4.62337.23674,4.5655-3.36025-.05027-3.12367-1.24136-3.71817-3.98786-3.79287-2.68822-.07315-3.90912.45846-3.61626,3.46609C303.64456,356.92761,303.21607,359.22774,306.46376,358.361Z" transform="translate(-11 -26)"/><path class="cls-6" d="M273.13473,296.06423c-.63024.05633-1.25967.149-1.89084.16275-3.02705.06608-6.88615-1.00374-8.85688.46486-2.132,1.58876-.56349,5.652-.67352,8.62674-.06492,1.75548-.79339,2.12529-2.31041,2.093-2.9106-.06186-5.82683.06764-8.73423-.04717-1.83872-.07262-2.63283.29146-2.61635,2.43867q.1606,20.87677.01509,41.75535c-.01015,1.91316.40035,2.69777,2.47736,2.55844,2.77284-.186,5.57116.03888,8.35155-.078,1.62195-.06817,2.09677.39874,2.17979,2.09129.36559,7.45363.43714,7.45017-7.12341,7.4501-4.811,0-9.625-.09875-14.43177.0438-2.19718.06518-2.76352-.7022-2.74073-2.82285.10338-9.6154-.051-19.23415.10695-28.84807.0443-2.69555-.41757-3.84536-3.45768-3.65248-2.84511.1805-6.3434,1.2779-8.47323-.57128-2.07524-1.80182-.56769-5.24945-.754-7.96256-.10034-1.46127-.224-2.3601-2.0429-2.286-3.28639.13393-7.2628-1.06582-9.68382.39263-2.50784,1.51075-.76336,5.7599-.875,8.78971-.07881,2.13868-.64617,2.81923-2.802,2.81316-2.574-.00725-6.01118-1.25269-7.4984.67989-1.239,1.61-.63111,4.87942-.35093,7.35855.37525,3.32026-.94629,3.94745-3.99805,3.861-7.46082-.21134-7.27506-.05086-7.54642,7.37812-.13094,3.5848.48364,5.36282,4.57453,4.77736,1.70745-.24436,4.65288-1.12555,5.18876.61067.81913,2.65393.34808,5.75089.17339,8.64461-.07445,1.2332-1.41327.76545-2.20076.771-5.82359.041-11.64823-.02711-17.47117.0466-2.24061.02836-2.94432-.74671-2.92177-3.08442.12687-13.15827-.0142-26.31913.12416-39.47714.028-2.66188-.69656-3.38753-3.35455-3.34614-7.61736.11868-7.71788-.00489-7.79646-7.39436-.02333-2.19533-.69937-2.73208-2.793-2.7214-2.86024.01462-6.5099,1.2928-8.3794-.59487-1.69876-1.71532-.535-5.30142-.47436-8.049.04663-2.11244-.78467-2.5693-2.67661-2.466-2.52457.13787-5.06782-.06738-7.59261.0684-1.72223.0926-2.06307-.57433-2.11908-2.17021-.0951-2.71,1.3103-6.33111-.68486-7.8736-1.67832-1.29753-5.13607-.56451-7.76309-.3015-3.47638.34807-4.51449-.82366-4.38-4.35581.288-7.566.08223-7.69421-7.53421-7.54124-2.83168.05691-3.88336-.4868-3.85515-3.658.16881-18.97849.13852-37.95959.02414-56.93889-.017-2.82741.47775-3.95052,3.66074-3.854,7.55174.229,7.5573.04421,7.55736,7.4865,0,3.66946.08381,7.34164-.03533,11.00723-.05833,1.79452.487,2.35278,2.32781,2.40047,3.11027.08061,7.23134-1.47367,9.04286.69082,1.52283,1.81954.62449,5.7884.52212,8.79638-.06606,1.941.663,2.3538,2.4091,2.26452,2.52551-.12913,5.07161.09917,7.59187-.07359,2.08682-.143,2.46723.68952,2.50227,2.60524.14049,7.67753.2121,7.67633,7.91824,7.67621,4.178-.00007,8.35937-.10024,12.5326.04076,2.12568.07178,2.78663-.58446,2.8307-2.75952.15247-7.52367.24388-7.52182,7.70021-7.522,5.15807-.00012,5.15807-.00012,5.15841-5.124.00046-6.65393.00046-6.65784,6.81216-6.65108,1.645.00165,3.29.03847,4.93477.05911a75.41942,75.41942,0,0,1,6.23133,4.70679c8.49054,7.8488,16.78659,15.90937,25.33438,23.69439,13.17666,12.00085,26.53212,23.80594,39.25609,36.29586A4.52479,4.52479,0,0,0,273.13473,296.06423Z" transform="translate(-11 -26)"/><path class="cls-7" d="M236.68347,203.27309c.047-20.99466.19238-41.99.044-62.9833-.02462-3.48251.96363-4.36766,4.2204-4.07127,2.73273.24872,6.33911.952,8.05558-.42187,1.83555-1.46915.59567-5.21038.54873-7.94236-.037-2.15462.59655-2.76212,2.75681-2.75726q44.61518.0999,89.23056-.006c2.33482-.00606,2.965.69545,3.06438,2.96936.12967,2.968-1.4195,6.94778.74222,8.62848,1.82384,1.418,5.6029.45622,8.50485.31235,2.05093-.10166,2.56585.68113,2.55764,2.61177-.06178,14.54675-.10134,29.09447.02727,43.64034.024,2.72107-1.31193,2.68966-3.27209,2.68478-17.08662-.04246-34.174.045-51.25964-.092-2.89156-.02317-4.054.614-3.70795,3.66316.3243,2.85746-.85478,6.62808.58863,8.41247,1.52251,1.88215,5.42994.56161,8.289.59369,7.46659.08377,14.93631.11311,22.40134-.02343,2.24213-.041,3.049.40982,3.03037,2.86523-.04987,6.574.08683,6.575-6.48935,6.57506-12.27713,0-24.55569.09984-36.83039-.07285-2.9215-.04112-3.626.84583-3.526,3.62316.20943,5.81127.20509,11.64034-.0009,17.45186-.092,2.596.822,3.13183,3.20142,3.06786,5.818-.15636,11.64446.02456,17.46423-.09324,1.94045-.03928,2.6599.433,2.60579,2.49887-.13908,5.30918-.10616,10.62547-.01249,15.93664.03076,1.74563-.40821,2.349-2.29188,2.4397-8.91927.42938-9.04556.49741-8.94964-8.27124.03048-2.78835-.89856-3.445-3.43617-3.21587-2.51194.22679-5.62949-.78645-7.43165.37342-2.001,1.28786-.16113,4.70273-.93952,7.09151-10.33165-9.53454-20.59027-19.15036-31.02125-28.57565C248.70665,214.63747,242.41418,209.25938,236.68347,203.27309Zm31.103-50.27084c6.27809,0,6.27809,0,6.27812-5.51325,0-6.01332,0-6.01332-6.51534-6.01332-6.16222,0-6.16222,0-6.16224,5.67167C261.387,153.00225,261.387,153.00225,267.78644,153.00225Z" transform="translate(-11 -26)"/><path class="cls-2" d="M416.4757,323.66679c-3.62838,5.23439-6.26314,11.0996-10.24193,16.11164-.85128-1.42828,1.46831-4.02769-1.70177-4.59867-4.619-.03028-9.238-.07419-13.857-.08712-5.0474-.01416-5.04745-.00167-4.86562,5.26946l-.29437.01544-.02874.2932c-5.7016-5.83076-12.39251-10.63145-17.64555-16.9289Q392.1589,323.704,416.4757,323.66679Z" transform="translate(-11 -26)"/><path class="cls-8" d="M80.20632,318.45064q34.90425-.03732,69.80836-.11617c2.0536-.008,2.87214.39828,2.8586,2.66062-.01379,2.30312-.94792,2.64408-2.94839,2.64091q-33.19736-.05249-66.39623.03392A10.49244,10.49244,0,0,1,80.20632,318.45064Z" transform="translate(-11 -26)"/><path class="cls-9" d="M416.4757,323.66679q-24.31711.03734-48.635.07505c-2.68024-.92266-4.09778-3.32011-6.01243-5.1376,12.24633-.075,24.49379-.17334,36.74144-.21748,6.82241-.02461,13.64512.04088,20.4677.06576Q417.7565,321.05967,416.4757,323.66679Z" transform="translate(-11 -26)"/><path class="cls-10" d="M94.08955,340.74018c7.173-.07651,14.34717-.10058,21.51861-.25223,3.45178-.073,1.96484,2.44365,2.21849,3.99339.29481,1.80124.04468,3.05486-2.44405,2.97054-5.41034-.18328-10.83152-.04725-16.25015-.04134Q96.60913,344.07574,94.08955,340.74018Z" transform="translate(-11 -26)"/><path class="cls-10" d="M302.809,323.42454c-8.97906.0593-17.95907.06254-26.93648.21677-2.28338.03922-1.92968-1.34007-1.96682-2.71151-.03888-1.43581-.21612-2.64182,2.00716-2.60771,6.95516.10684,13.91381-.01251,20.87143-.04435Q299.79692,320.851,302.809,323.42454Z" transform="translate(-11 -26)"/><path class="cls-2" d="M404.65581,341.18465c-1.6364,2.38538-3.43652,4.67724-4.86773,7.17982-1.792,3.13349-3.59518,2.50392-5.6583.43686q-3.61238-3.61916-7.2447-7.21221c.06868-.29728.13487-.59827.201-.89926l17.4993-.09157c-.04785.07182-.14889.1595-.13313.21236A1.88014,1.88014,0,0,0,404.65581,341.18465Z" transform="translate(-11 -26)"/><path class="cls-11" d="M404.65581,341.18465a1.88014,1.88014,0,0,1-.20352-.374c-.01576-.05286.08528-.14054.13331-.2125q-.02664-2.7093-.05355-5.41837c3.17.571.85044,3.17037,1.70172,4.59865C406.21935,340.82063,405.65477,341.24621,404.65581,341.18465Z" transform="translate(-11 -26)"/><path class="cls-11" d="M387.08612,340.68986c-.06617.301-.13236.602-.201.89926-.80335.20205-1.22758-.166-1.399-.91882l.02884-.29276.29442-.01532C386.33026,340.10053,386.80955,340.00057,387.08612,340.68986Z" transform="translate(-11 -26)"/><path class="cls-12" d="M147.13962,357.93534a23.88936,23.88936,0,0,0,3.01563-.02137c2.22-.28447,2.81268.71413,2.752,2.79319-.05434,1.86292-.15819,3.222-2.59067,2.98831-1.74457-.16766-3.51839-.02106-5.279-.03508-2.05286-.01634-4.18623.6591-4.11907-2.983.06334-3.43476,2.06142-2.69652,3.95736-2.73936C145.63012,357.921,146.385,357.93529,147.13962,357.93534Z" transform="translate(-11 -26)"/><path class="cls-13" d="M306.46376,358.361c-3.24769.86671-2.8192-1.43342-3.03862-3.687-.29286-3.00763.928-3.53924,3.61626-3.46609,2.7465.0747,3.93759.6692,3.98786,3.79287C311.08713,358.59777,309.06175,358.44477,306.46376,358.361Z" transform="translate(-11 -26)"/><path class="cls-14" d="M267.78644,153.00225c-6.39948,0-6.39948,0-6.39946-5.8549,0-5.67167,0-5.67167,6.16224-5.67167,6.51536,0,6.51536,0,6.51534,6.01332C274.06453,153.00224,274.06453,153.00224,267.78644,153.00225Z" transform="translate(-11 -26)"/><path class="cls-7" d="M387.08609,340.68986c-.27654-.68929-.75583-.58933-1.27671-.32764-.18188-5.27125-.18183-5.28374,4.86557-5.26958,4.619.01293,9.238.05684,13.857.08712q.02693,2.70916.0536,5.41841Q395.83565,340.64415,387.08609,340.68986Z" transform="translate(-11 -26)"/></svg>
