<?xml version="1.0" encoding="utf-8"?>
<!-- Generator: Adobe Illustrator 24.0.0, SVG Export Plug-In . SVG Version: 6.00 Build 0)  -->
<svg version="1.1" id="Layer_1" xmlns="http://www.w3.org/2000/svg" xmlns:xlink="http://www.w3.org/1999/xlink" x="0px" y="0px"
	 viewBox="0 0 1400 980" style="enable-background:new 0 0 1400 980;" xml:space="preserve">
<style type="text/css">
	.st0{fill:#212F40;}
	.st1{fill:none;}
	.st2{fill:#FCEBBF;}
	.st3{fill:#FCD05D;}
	.st4{fill:#FDAA68;}
	.st5{fill:#DE975C;}
	.st6{fill:#CC7745;}
	.st7{fill:#E6DBC6;}
	.st8{fill:#E0C47C;}
	.st9{fill:#F0D385;}
	.st10{fill:#E1834D;}
	.st11{fill:#FBF0DA;}
	.st12{fill:#ED553B;}
	.st13{fill:#FC5B3E;}
	.st14{fill:#DE4F37;}
	.st15{fill:#CF4934;}
	.st16{fill:#01A0C7;}
	.st17{fill:#018FB3;}
	.st18{fill:#AEAEB0;}
	.st19{fill:#D0D1D3;}
</style>
<g>
	<rect class="st0" width="1400" height="980"/>
</g>
<g>
	<path class="st1" d="M226.4,708.1c-30.3,16.1-47.6,31.4-44.5,42.1c3,10.7,25.6,14.7,59.6,12.5c-4.2-8-7.7-16.5-10.3-25.6
		C228.5,727.5,226.9,717.7,226.4,708.1z"/>
	<path class="st1" d="M147.3,759.4c-4.5-15.9,27.2-39.9,79.1-63.7c0-1,0.1-2.1,0.2-3.1c-56,25.5-90.3,51.9-85.3,69.5
		c5,17.5,47.8,22.1,108.7,14.6c-1-1.4-2-2.9-3-4.4C190.9,779.1,151.7,775.1,147.3,759.4z"/>
	<path class="st2" d="M368.9,746.9c-44.4,12.6-86.5,21.1-121.8,25.4c1,1.5,1.9,2.9,3,4.4c35.3-4.4,76.6-12.8,120.2-25.1
		c43.5-12.3,83.2-26.8,115.5-41.6c0.1-1.8,0.2-3.5,0.2-5.3C453.6,719.5,413.3,734.3,368.9,746.9z"/>
	<path class="st2" d="M258.5,787.4c32,36.4,83.2,53.4,133,39.3c49.8-14.1,84.5-55.4,92.7-103.2c-32.9,13.6-70.6,26.6-111.1,38.1
		C332.6,773.1,293.7,781.7,258.5,787.4z"/>
	<path class="st2" d="M481,666.4c-2.7-9.7-6.5-18.8-11.2-27.3c-2-3.6-4.2-7.2-6.5-10.6c-0.6-0.9-1.2-1.7-1.8-2.6
		c-3-4.2-6.3-8.2-9.8-12c-32.1-34.9-82.3-50.9-131-37.1c-48.8,13.8-83.1,53.7-92.1,100.3c-1,5.1-1.7,10.2-2,15.4
		c-0.1,1-0.1,2.1-0.2,3.1c-0.2,4.1-0.2,8.2,0,12.4c0.5,9.6,2,19.4,4.8,29.1c2.6,9,6,17.6,10.3,25.6c33.3-2.1,77.6-10.1,125.2-23.6
		c47.6-13.5,89.5-29.9,119-45.6C485.1,684.6,483.6,675.5,481,666.4z"/>
	<g>
		<path class="st3" d="M613,627.8c-6.9-24.2-72.2-28.3-161.2-13.8c3.5,3.8,6.8,7.8,9.8,12c61.1-7.6,104.1-3.1,109.1,14.5
			c5,17.5-29.2,43.9-85,69.4c-32.4,14.8-72,29.3-115.5,41.6c-43.5,12.3-84.9,20.8-120.2,25.1c-60.9,7.5-103.7,3-108.7-14.6
			c-5-17.6,29.3-44,85.3-69.5c0.4-5.2,1.1-10.3,2-15.4c-83.4,34.2-136.9,72-130,96.2c6.8,24.1,71.6,28.3,159.9,14
			c35.2-5.7,74.1-14.3,114.6-25.8c40.5-11.5,78.1-24.5,111.1-38.1C566.8,689.4,619.8,651.9,613,627.8z"/>
		<path class="st3" d="M181.9,750.2c-3-10.7,14.3-26,44.5-42.1c-0.2-4.2-0.2-8.3,0-12.4c-52,23.8-83.6,47.8-79.1,63.7
			c4.5,15.8,43.6,19.7,99.8,12.9c35.3-4.3,77.4-12.8,121.8-25.4c44.4-12.6,84.7-27.3,117.1-42.2c51.4-23.6,82.7-47.5,78.2-63.3
			c-4.5-15.9-44.1-19.8-100.8-12.8c2.3,3.4,4.5,6.9,6.5,10.6c34.2-2.2,57,1.8,60,12.5c3,10.7-14.1,25.9-44.2,41.9
			c-29.5,15.7-71.4,32.1-119,45.6c-47.6,13.5-91.9,21.5-125.2,23.6C207.5,764.9,184.9,760.8,181.9,750.2z"/>
	</g>
</g>
<g>
	<path class="st4" d="M1204.4,317.3c2.4-7.5,28.1-6.7,67.7,0.5c2.1-4.7,4-9.5,5.6-14.5c1.4-4.3,2.5-8.7,3.4-13.1
		c-51-16.3-90.5-34.8-88.4-41.3c2-6.3,42.3,0.9,91.1,16.1c0.6-55.7-34.9-107.7-90.7-125.5c-40.4-12.9-82.4-5-114.7,17.6
		c57.9,23.8,94.7,44.9,91.6,54.6c-3.5,10.8-55.9,4.4-128.9-14.1c-4.8,8.2-8.8,17-11.8,26.4c-3.8,11.8-5.7,23.7-6.1,35.4
		c1.9,0.6,3.9,1.2,5.8,1.8c51.3,16.4,91.2,34.9,89.1,41.5c-2,6.4-43.3-1.1-93-16.7c8.1,46.2,40.9,86.5,88.7,101.7
		c50.2,16,102.8,0,136.1-36.5C1219.6,336.4,1202.3,324.1,1204.4,317.3z"/>
	<path class="st5" d="M1170.2,211.8c3.1-9.7-33.7-30.7-91.6-54.6c-14.9,10.5-27.7,24.2-37.3,40.5
		C1114.3,216.2,1166.7,222.6,1170.2,211.8z"/>
	<path class="st5" d="M1204.4,317.3c-2.2,6.8,15.2,19.1,45.6,34.1c8.9-9.8,16.4-21,22.1-33.5
		C1232.5,310.6,1206.8,309.9,1204.4,317.3z"/>
	<path class="st5" d="M1192.8,249c-2.1,6.5,37.4,24.9,88.4,41.3c1.8-8.4,2.7-16.8,2.7-25.2C1235.1,249.9,1194.8,242.7,1192.8,249z"
		/>
	<path class="st5" d="M1118.2,302.8c2.1-6.5-37.8-25.1-89.1-41.5c-2-0.6-3.9-1.2-5.8-1.8c-0.3,9,0.3,17.9,1.9,26.6
		C1074.9,301.8,1116.2,309.2,1118.2,302.8z"/>
</g>
<g>
	<path class="st6" d="M1220.5,585.9c-6.8-7.8-14.3-14.9-22.6-21.2c1.4,7.8,2.5,15.7,3.1,23.7C1207.5,587.5,1214,586.7,1220.5,585.9z
		"/>
	<path class="st7" d="M1201.7,606.2c0,0.5,0,1,0,1.5c11.2-1,22.4-1.5,33.6-1.5c-4.4-7.2-9.3-14-14.8-20.3c-6.5,0.8-13,1.7-19.5,2.5
		C1201.4,594.2,1201.7,600.2,1201.7,606.2z"/>
	<path class="st6" d="M1199.4,638.4c16.7-1.2,33.3-2.1,49.9-2.4c-3.6-10.5-8.3-20.5-14-29.9c-11.1,0-22.3,0.6-33.6,1.5
		C1201.6,618.1,1200.9,628.4,1199.4,638.4z"/>
	<path class="st7" d="M1160.7,736.8c29.9-3.5,59.7-5.8,89.3-4.7c4.8-14.7,7.4-30.4,7.5-46.7c-26.3,5.8-52.6,14.4-78.9,21.1
		C1173.4,717.1,1167.4,727.2,1160.7,736.8z"/>
	<path class="st6" d="M1160.7,736.8c-11,15.7-23.9,30-38.4,42.5c37.5-4.3,75.1-6.3,111.2-12.4c6.9-10.7,12.5-22.4,16.5-34.8
		C1220.4,731,1190.6,733.3,1160.7,736.8z"/>
	<path class="st8" d="M1043.9,823.5c18.9,8.5,39.9,13.3,62,13.3c53.6,0,100.7-27.8,127.7-69.9c-36.1,6.1-73.7,8.1-111.2,12.4
		C1099.6,798.9,1073,814,1043.9,823.5z"/>
	<path class="st7" d="M1186.4,688.6c23.4-5.7,46.2-15.6,69.7-23.9c-1.4-9.9-3.6-19.4-6.8-28.6c-16.5,0.3-33.1,1.1-49.9,2.4
		C1197,655.8,1192.5,672.6,1186.4,688.6z"/>
	<path class="st6" d="M1256.1,664.6c-23.5,8.3-46.3,18.2-69.7,23.9c-2.4,6.1-4.9,12.1-7.8,17.9c26.3-6.7,52.6-15.2,78.9-21.1
		c0-0.1,0-0.2,0-0.4C1257.5,678.1,1257,671.3,1256.1,664.6z"/>
	<path class="st9" d="M1123.1,576.7c22.1-8,45.2-13.3,68.7-16.6c-24.5-16.9-54.1-26.8-86-26.8c-42.8,0-81.4,17.8-109,46.3
		C1040,576.3,1084.4,590.8,1123.1,576.7z"/>
	<path class="st10" d="M1123.1,576.7c-38.7,14.1-83.1-0.4-126.3,2.9c-10.9,11.3-20,24.2-27,38.4c76.1-9.9,154.4-19.8,231.2-29.7
		c-0.6-8-1.6-15.9-3.1-23.7c-2-1.5-4-3.1-6.1-4.5C1168.3,563.5,1145.3,568.7,1123.1,576.7z"/>
	<path class="st11" d="M1201.7,606.2c0-6-0.3-11.9-0.8-17.8c-76.8,9.9-155.1,19.8-231.2,29.7c-4.3,8.8-7.8,18.1-10.4,27.8
		c80.3-4.1,162.6-31.3,242.3-38.1C1201.7,607.2,1201.7,606.7,1201.7,606.2z"/>
	<path class="st10" d="M1201.7,607.7c-79.8,6.8-162.1,34-242.3,38.1c-2.3,8.6-3.9,17.6-4.6,26.8c81.3-12.2,164-28.1,244.7-34.1
		C1200.9,628.4,1201.6,618.1,1201.7,607.7z"/>
	<path class="st11" d="M1088.5,715.4c-45-5.3-88.4-4.1-131.2,0.6c3.2,15.2,8.6,29.6,16,42.8c62.7-1.6,125.4-14.7,187.4-22
		c6.7-9.6,12.7-19.7,17.9-30.3C1148.5,714.1,1118.5,719.4,1088.5,715.4z"/>
	<path class="st10" d="M1013.3,805.2c35.1-15.1,72-21.6,109-25.9c14.5-12.5,27.4-26.8,38.4-42.5c-62,7.3-124.7,20.4-187.4,22
		C983.3,776.9,997,792.6,1013.3,805.2z"/>
	<path class="st9" d="M1013.3,805.2c9.4,7.2,19.6,13.4,30.5,18.3c29.2-9.5,55.7-24.6,78.4-44.2
		C1085.3,783.6,1048.4,790.1,1013.3,805.2z"/>
	<path class="st11" d="M954.7,672.5c-0.3,4.1-0.6,8.3-0.6,12.5c0,1.6,0.1,3.3,0.1,4.9c64.3-10.5,131.7,7.4,195.5,3.4
		c12.5,0,24.7-1.9,36.6-4.8c6.2-15.9,10.6-32.7,13.1-50.2C1118.8,644.4,1036,660.4,954.7,672.5z"/>
	<path class="st10" d="M954.3,690c0.3,8.9,1.3,17.6,3,26c42.8-4.7,86.2-5.9,131.2-0.6c30,4,60.1-1.3,90.1-8.9
		c2.9-5.8,5.4-11.8,7.8-17.9c-12,2.9-24.1,4.8-36.6,4.8C1086,697.3,1018.6,679.4,954.3,690z"/>
</g>
<g>
	<path class="st12" d="M789.8,174.8c5.7,16.9,8.9,35,8.9,53.8c0,92.4-74.9,167.4-167.4,167.4c-29.3,0-56.8-7.5-80.7-20.8
		c6.9,10.7,15,20.5,24.2,29.2h50.8c3.2,0,5.8,2.6,5.8,5.8c0,3.2-2.6,5.8-5.8,5.8h-37.1c26.3,19.9,59.1,31.6,94.6,31.6
		c86.9,0,157.3-70.4,157.3-157.3C840.4,244.6,820.9,203.5,789.8,174.8z"/>
	<path class="st13" d="M798.7,228.6c0-18.8-3.2-36.9-8.9-53.8C761.8,148.8,724.3,133,683,133c-86.9,0-157.3,70.4-157.3,157.3
		c0,31.3,9.2,60.4,24.9,84.9c23.9,13.2,51.5,20.8,80.7,20.8C723.8,396,798.7,321,798.7,228.6z"/>
	<path class="st14" d="M631.4,296.5c0,3.4-2.8,6.2-6.2,6.2h-69.4c-3.4,0-6.2-2.8-6.2-6.2l0,0c0-3.4,2.8-6.2,6.2-6.2h69.4
		C628.6,290.3,631.4,293,631.4,296.5L631.4,296.5z"/>
	<path class="st14" d="M782.5,213.9c0,3-2.4,5.4-5.4,5.4h-44.7c-3,0-5.4-2.4-5.4-5.4l0,0c0-3,2.4-5.4,5.4-5.4h44.7
		C780.1,208.5,782.5,211,782.5,213.9L782.5,213.9z"/>
	<path class="st14" d="M767.1,234c0,3-2.4,5.4-5.4,5.4h-45.5c-3,0-5.4-2.4-5.4-5.4l0,0c0-3,2.4-5.4,5.4-5.4h45.5
		C764.7,228.6,767.1,231,767.1,234L767.1,234z"/>
	<path class="st15" d="M818.8,281.8c0,1.7-1.4,3.1-3.1,3.1h-45.5c-1.7,0-3.1-1.4-3.1-3.1l0,0c0-1.7,1.4-3.1,3.1-3.1h45.5
		C817.4,278.7,818.8,280.1,818.8,281.8L818.8,281.8z"/>
	<path class="st15" d="M631.4,410.2c0-3.2-2.6-5.8-5.8-5.8h-50.8c4.3,4.1,8.9,8,13.6,11.6h37.1C628.8,416,631.4,413.4,631.4,410.2z"
		/>
	<path class="st14" d="M693,181.9c0,3.2-2.6,5.8-5.8,5.8h-54.8c-3.2,0-5.8-2.6-5.8-5.8l0,0c0-3.2,2.6-5.8,5.8-5.8h54.8
		C690.5,176.1,693,178.7,693,181.9L693,181.9z"/>
	<path class="st14" d="M738.9,365.1c0,3.4-2.8,6.2-6.2,6.2h-99.9c-3.4,0-6.2-2.8-6.2-6.2l0,0c0-3.4,2.8-6.2,6.2-6.2h99.9
		C736.2,358.9,738.9,361.7,738.9,365.1L738.9,365.1z"/>
	<path class="st15" d="M727,391.7c0,2.3-1.9,4.2-4.2,4.2h-52.4c-2.3,0-4.2-1.9-4.2-4.2l0,0c0-2.3,1.9-4.2,4.2-4.2h52.4
		C725.1,387.5,727,389.4,727,391.7L727,391.7z"/>
	<path class="st14" d="M696.5,281.6c0,4.8-3.9,8.7-8.7,8.7l0,0c-4.8,0-8.7-3.9-8.7-8.7v-1.9c0-4.8,3.9-8.7,8.7-8.7l0,0
		c4.8,0,8.7,3.9,8.7,8.7V281.6z"/>
	<path class="st14" d="M767.1,335.8c0,3.8-3.1,6.9-6.9,6.9h-30.9c-3.8,0-6.9-3.1-6.9-6.9l0,0c0-3.8,3.1-6.9,6.9-6.9h30.9
		C764,328.8,767.1,332,767.1,335.8L767.1,335.8z"/>
	<path class="st14" d="M631.4,247.9c0,3-2.4,5.4-5.4,5.4h-30.1c-3,0-5.4-2.4-5.4-5.4l0,0c0-3,2.4-5.4,5.4-5.4H626
		C628.9,242.5,631.4,244.9,631.4,247.9L631.4,247.9z"/>
</g>
<g>
	<path class="st16" d="M383,273.2c0.2-1.9,0.4-3.8,0.6-5.8c5.5-70.3-46.9-131.8-117.2-137.3c-46.9-3.7-89.8,18.4-114.9,54.4
		c5.4,0,11.1,0.2,17.1,0.7c33.1,2.6,59.4,11.5,58.8,19.8c-0.7,8.3-28,13-61.2,10.4c-10.5-0.8-20.4-2.3-28.9-4.2
		c-4.4,11.3-7.2,23.4-8.2,36.1c-0.1,0.6-0.1,1.3-0.1,1.9c36.8-4,76.9-4.7,118.8-1.4C296.9,251.7,342.8,260.7,383,273.2z
		 M278.5,184.9c10-8.4,33.7-7.5,47.5-0.8C434.7,235.8,205.5,265.6,278.5,184.9z"/>
	<path class="st17" d="M326,184.1c-13.8-6.7-37.5-7.6-47.5,0.8C205.5,265.6,434.7,235.8,326,184.1z"/>
	<path class="st17" d="M227.3,205.1c0.7-8.3-25.7-17.2-58.8-19.8c-5.9-0.5-11.6-0.7-17.1-0.7c-5.7,8.2-10.5,17.2-14.2,26.7
		c8.5,1.9,18.4,3.4,28.9,4.2C199.3,218,226.7,213.4,227.3,205.1z"/>
	<path class="st17" d="M174.4,355.2c22.1-4,49.1-5.3,78-3c26.6,2.1,51.2,6.9,71.5,13.5c10.9-6.8,20.7-15.2,29.2-25
		c-0.7,0-1.3-0.1-2-0.1c-70.4-5.6-126.5-21-125.5-34.6c1.1-13.5,59-20,129.3-14.5c8.2,0.6,16.1,1.4,23.8,2.3
		c2-6.7,3.5-13.6,4.3-20.7c-40.2-12.5-86.1-21.4-135.3-25.3c-41.9-3.3-82-2.6-118.8,1.4C126.3,291.3,144.3,330,174.4,355.2z"/>
	<path class="st16" d="M225.5,306c-1.1,13.5,55.1,29,125.5,34.6c0.7,0.1,1.3,0.1,2,0.1c11.6-13.4,20.5-29.3,25.7-46.9
		c-7.7-0.9-15.7-1.7-23.8-2.3C284.5,286,226.6,292.5,225.5,306z"/>
	<path class="st16" d="M174.4,355.2c19.6,16.5,44.4,27.2,71.9,29.4c28.3,2.2,55.2-5,77.6-18.9c-20.3-6.6-44.8-11.4-71.5-13.5
		C223.5,349.9,196.5,351.2,174.4,355.2z"/>
</g>
<g>
	<path class="st18" d="M807.7,718.2c-8.9,1.9-9.3,13-21.6,13c-16.2-0.1-18.4-16.2-29.2,1.4c-8.1,14.2-1.6,27.6-1.3,41.7
		c22.6,2.4,46.1-5,63.5-22.3c7.2-7.1,12.7-15.3,16.5-24.1C826.5,721.4,815.7,716.4,807.7,718.2z"/>
	<path class="st18" d="M721.1,724.4c11.5-3,22.3-10.7,23.5-23.4c2.4-20.8-20.7-17-24.1-31.2c-2.3-10,11.6-13.8,12.8-23.4
		c1-6.4-2.1-12.9-6.4-18.9c-6.5,3.5-12.7,8-18.2,13.5c-17.9,17.8-25.4,42.1-22.5,65.3C696.4,716.1,709.2,726.9,721.1,724.4z"/>
	<path class="st18" d="M778.7,651.9c6.3-0.7,22.8-9.1,32.6-17.8c-16.9-12.9-37.9-18-58-15.2C757,633.5,762.9,653.1,778.7,651.9z"/>
	<path class="st18" d="M788.6,679.6c-6.2,16.1,7.7,11.6,17.3,10.4c11.6-1.3,24.9,2.1,36.3,8.4c0.4-16.9-4.5-33.8-14.9-48.1
		C815.5,661.6,792.8,670.1,788.6,679.6z"/>
	<path class="st19" d="M733.3,646.3c-1.2,9.6-15.1,13.4-12.8,23.4c3.4,14.2,26.5,10.5,24.1,31.2c-1.2,12.7-12,20.3-23.5,23.4
		c-11.9,2.5-24.8-8.3-34.9-18.2c2.1,16.6,9.4,32.7,22.1,45.5c13.2,13.3,30,20.9,47.3,22.7c-0.3-14.1-6.8-27.6,1.3-41.7
		c10.8-17.7,13.1-1.5,29.2-1.4c12.3,0,12.7-11.1,21.6-13c8-1.7,18.8,3.3,28,9.8c4.1-9.4,6.3-19.4,6.6-29.5
		c-11.4-6.3-24.8-9.7-36.3-8.4c-9.6,1.1-23.5,5.7-17.3-10.4c4.2-9.5,26.9-18,38.7-29.2c-2.3-3.2-4.9-6.2-7.8-9.1
		c-2.6-2.6-5.4-5-8.2-7.2c-9.7,8.7-26.3,17.1-32.6,17.8c-15.8,1.2-21.7-18.3-25.4-33c-9.1,1.2-18.1,4.1-26.4,8.6
		C731.2,633.4,734.3,640,733.3,646.3z"/>
</g>
</svg>
